<?xml version="1.0" encoding="UTF-8" standalone="no"?><!DOCTYPE svg PUBLIC "-//W3C//DTD SVG 1.1//EN" "http://www.w3.org/Graphics/SVG/1.1/DTD/svg11.dtd"><svg width="100%" height="100%" viewBox="0 0 5667 5409" version="1.1" xmlns="http://www.w3.org/2000/svg" xmlns:xlink="http://www.w3.org/1999/xlink" xml:space="preserve" xmlns:serif="http://www.serif.com/" style="fill-rule:evenodd;clip-rule:evenodd;stroke-linejoin:round;stroke-miterlimit:2;"><g><path d="M5666.661,1380.697l0,2623.047c-3.149,8.196 -6.09,6.955 -6.479,16.863c-0.874,22.278 -2.066,21.623 -2.433,44.013c-4.89,19.011 -3.192,18.849 -3.953,38.747l-0.182,16.629l-3.974,5.976c-0.165,5.411 -0.331,10.822 -0.496,16.233c-0.892,19.764 -1.175,19.274 -5.725,38.92c-0.795,5.401 -1.59,10.802 -2.386,16.203l-0.221,5.548c-1.166,5.616 -2.332,11.232 -3.498,16.848l-0.397,5.458c-1.462,5.634 -2.925,11.268 -4.387,16.902c-1.312,7.189 -10.495,57.497 -22.589,88.505l-1.999,10.532c-0.847,3.109 -8.174,29.991 -11.592,38.573l-2.328,1.027c-3.122,10.602 -2.419,10.202 -3.672,20.896c-0.409,2.346 -0.924,1.929 -10.413,27.891l-2.234,1.316c-4.43,16.187 -6.355,15.374 -9.1,31.757c-3.31,6.861 -4.902,5.445 -8.023,12.285c-5.691,16.452 -7.452,24.496 -7.928,26.67c-1.262,2.513 -0.182,2.406 -1.403,4.838c-0.266,0.53 0,-0 -3.7,6.42c-2.206,3.188 -11.865,27.178 -11.917,27.25c-1.266,4.786 -5.225,10.151 -5.814,10.949c-0.537,2.333 -7.574,8.079 -6.298,21.572c-0.597,1.139 -3.11,-0.065 -3.706,1.074c-3.08,5.881 -0.983,6.453 -5.078,11.294c-8.682,10.265 -12.79,29.282 -13.376,31.994c-7.052,7.462 -8.08,6.77 -10.738,16.681c-6.243,7.864 -3.61,9.167 -10.444,16.92c-2.309,7.619 -6.605,4.888 -8.049,12.764c-1.412,7.705 -0.394,7.504 -3.596,14.605c-0.834,0.917 -5.144,5.659 -10.578,11.325c-3.593,5.256 -1.943,5.778 -5.775,10.868c-3.055,4.895 -37.152,59.524 -38.28,61.128c-7.169,7.147 -4.364,8.607 -11.538,16.119c-9.851,16.647 -23.775,31.885 -26.107,34.437c-1.812,2.096 -10.455,15.064 -11.339,16.391c-1.649,1.997 -3.297,3.995 -4.946,5.992c-4.201,4.565 -4.257,3.998 -6.811,9.942c-5.661,5.565 -5.36,5.261 -11.136,11.128c-5.443,6.103 -5.062,5.653 -9.946,11.974c-1.577,1.889 -0.153,2.297 -1.617,4.05c-0.408,0.489 -0.429,0.405 -5.787,5.463c-7.999,8.69 -7.273,8.509 -14.704,18.193c-1.835,1.85 -3.671,3.7 -5.506,5.55c-4.418,4.561 -4.089,4.449 -6.653,10.136c-5.732,5.521 -5.478,5.261 -10.906,11.136c-1.936,2.469 -1.913,2.255 -21.535,22.685c-5.872,5.479 -5.577,5.178 -10.999,11.132c-1.794,1.894 -3.588,3.789 -5.383,5.683c-1.902,1.786 -3.803,3.571 -5.705,5.357c-5.804,5.257 -5.524,4.992 -11.476,10.641c-16.622,16.825 -16.604,16.076 -33.179,33.24c-10.515,7.548 -10.728,6.911 -15.578,12.138c-1.789,1.751 -11.639,11.388 -22.812,21.415c-9.625,7.397 -8.98,7.453 -17.349,15.633c-1.939,1.77 -3.879,3.54 -5.818,5.309c-3.251,2.358 -6.502,4.717 -9.753,7.075c-9.159,7.793 -8.972,7.276 -17.615,15.466c-6.006,2.319 -5.594,2.25 -10.156,6.535c-18.981,17.156 -20.806,14.38 -40.228,31.473c-8.544,5.432 -8.343,4.845 -15.996,11.639c-9.693,3.734 -8.75,4.758 -16.172,11.632c-1.447,1.122 -20.886,14.406 -22.707,15.651c-3.576,2.005 -7.152,4.01 -10.728,6.014c-1.471,1.317 -1.632,0.53 -21.041,12.888c-12.184,7.579 -12.255,6.508 -22.762,15.531c-0.797,0.584 -0.847,-0.066 -11.03,5.565c-4.939,3.851 -5.423,2.434 -10.463,6.572c-6.955,3.566 -5.771,4.699 -12.821,8.063c-13.877,4.641 -12.298,6.582 -21.467,12.216c-3.131,1.014 -6.261,2.028 -9.392,3.043c-22.202,13.781 -23.808,9.771 -46.023,24.283c-0.832,0.543 -7.804,5.098 -10.913,5.933c-10.819,3.073 -9.713,4.481 -20.794,8.201c-2.101,1.324 -4.202,2.648 -6.302,3.972c-4.866,2.161 -5.093,0.439 -9.882,2.566c-0.545,0.242 0,0 -6.429,3.773l-1.117,2.685c-8.316,1.077 -7.645,1.346 -15.156,3.443c-8.941,4.582 -8.627,4.444 -17.569,8.941c-1.762,0.415 -10.041,2.365 -21.455,7.202c-1.452,0.403 -11.314,7.532 -12.272,8.225c-1.668,-0.191 -9.248,-1.057 -20.679,3.592c-37.311,14.612 -36.549,15.248 -77.934,26.446c-6.005,1.625 -26.09,8.259 -28.35,9.005c-11.557,1.684 -11.182,1.303 -21.967,5.229c-8.282,2.016 -8.052,1.503 -16.006,3.438c-1.347,0.328 -1.244,0.315 -16.8,4.251c-7.435,1.525 -14.869,3.05 -22.304,4.575c-21.875,7.193 -22.195,4.344 -44.772,9.443c-8.553,-1.221 -8.088,-0.418 -15.942,2.712l-5.501,0.64l-6.369,1.984c-8.125,-1.031 -7.638,-0.746 -15.915,1.895l-11.048,0.39c-11.31,1.003 -10.99,0.704 -22.091,3.839c-12.98,0.604 -31.269,3.715 -50.376,4.942c-13.985,-2.175 -13.495,-0.633 -27.097,3.578c-288.414,2.098 -2901.418,2.002 -2966.232,-0.152c-13.4,-4.113 -13.052,-5.724 -27.088,-3.379c-18.863,-1.198 -38.715,-4.38 -50.376,-5.034c-10.995,-2.978 -10.624,-2.692 -22.096,-3.753l-11.062,-0.284c-3.367,-1.101 -29.159,-9.534 -43.666,-7.313c-11.432,-3.71 -11.085,-3.693 -22.644,-5.301c-13.549,-3.748 -13.085,-3.767 -27.359,-5.053c-2.926,-1.372 -2.823,-0.442 -38.853,-11.043c-5.588,-1.6 -11.176,-3.199 -16.765,-4.799c-25.676,-6.545 -25.038,-7.657 -32.604,-6.765c-3.045,-1.603 -2.368,-2.661 -16.746,-6.209c-5.558,-1.652 -11.117,-3.304 -16.675,-4.956c-10.163,-5.975 -9.962,-6.837 -21.905,-5.325c-6.675,-3.234 -5.336,-4.732 -12.353,-7.796l-15.448,-3.27c-6.122,-0.935 -25.561,-9.91 -27.725,-10.909c-10.48,-4.903 -10.024,-5.418 -21.529,-5.97c-16.075,-11.786 -16.81,-9.704 -35.184,-18.342c-3.311,-0.802 -6.621,-1.603 -9.932,-2.405c-9.548,-2.32 -20.532,-9.981 -22.159,-11.116c-0.85,-0.51 -8.483,-5.091 -11.027,-5.65c-0.966,-0.212 -6.909,-1.519 -11.426,-4.717l-4.77,-1.637c-16.614,-12.622 -18.739,-7.982 -28.401,-15.026c-1.932,-1.34 -1.951,-0.569 -26.338,-13.025c-0.715,-0.463 -0.114,-0.759 -8.262,-6.722l-9.127,-3.44c-5.178,-3.736 -4.872,-3.447 -11.047,-5.393c-6.757,-4.163 -5.682,-5.142 -12.391,-8.942c-7.408,-5.087 -7.175,-4.624 -15.277,-7.635c-4.645,-1.581 -9.837,-5.805 -10.606,-6.431c-5.007,-3.984 -4.458,-4.417 -10.707,-5.825c-1.019,-0.687 -6.403,-4.318 -12.458,-8.987c-1.333,-0.88 -10.261,-6.771 -16.258,-11.582c-4.566,-3.483 -4.554,-3.285 -22.888,-15.441c-2.326,-1.625 -24.073,-16.822 -29.087,-20.29c-3.761,-2.602 -3.884,-1.394 -7.925,-4.086c-0.527,-0.351 0,0 -6.088,-5.06c-2.007,-1.596 -4.013,-3.192 -6.02,-4.788c-8.145,-6.576 -6.983,-7.551 -16.305,-11.442c-8.754,-8.031 -8.12,-8.112 -17.805,-14.972c-25.922,-18.876 -25.569,-18.589 -25.924,-18.923c-8.568,-8.449 -8.12,-8.171 -17.624,-15.263c-3.256,-2.417 -6.512,-4.834 -9.768,-7.251c-7.604,-8.927 -8.548,-7.434 -17.428,-15.398c-7.47,-6.569 -20.697,-19.982 -22.453,-21.763c-8.191,-8.919 -8.146,-8.455 -16.927,-16.271c-1.955,-1.727 -3.911,-3.454 -5.866,-5.181c-1.938,-1.746 -3.875,-3.491 -5.813,-5.237c-1.86,-1.852 -3.72,-3.705 -5.581,-5.557c-5.678,-6.014 -5.308,-5.622 -10.746,-11.366c-1.795,-1.899 -3.589,-3.797 -5.384,-5.696c-5.391,-5.761 -5.045,-5.394 -10.726,-11.394c-1.799,-1.886 -3.599,-3.773 -5.398,-5.659c-5.511,-5.796 -5.2,-5.473 -10.84,-11.295c-1.917,-1.771 -3.834,-3.542 -5.751,-5.314c-2.807,-3.336 -15.082,-15.462 -16.419,-16.782c-7.054,-10.086 -6.174,-10.064 -12.012,-15.72c-13.572,-14.117 -13.587,-13.362 -25.902,-29.131c-7.375,-12.183 -7.29,-11.812 -17.003,-21.835c-1.794,-1.909 -3.588,-3.818 -5.382,-5.726c-0.827,-0.924 -5.073,-5.666 -9.751,-12.047c-7.497,-7.161 -4.884,-8.79 -11.631,-16.259c-3.909,-10.708 -5.096,-9.392 -11.421,-15.984c-4.462,-6.127 -10.346,-15.381 -11.211,-16.741c-6.872,-7.281 -4.248,-8.889 -11.344,-16.217c-1.479,-2.116 -2.959,-4.231 -4.438,-6.347c-5.402,-5.579 -7.582,-13.636 -7.935,-14.943c-4.628,-10.556 -24.371,-29.429 -35.539,-59.52c-0.295,-0.794 -1.213,-0.068 -6.311,-8.494c-7.037,-7.185 -4.216,-8.628 -10.937,-16.238c-3.711,-12.335 -4.346,-11.449 -10.641,-22.68c-3.969,-17.601 -10.819,-14.536 -14.281,-31.349c-4.387,-10.752 -18.604,-36.494 -20.326,-39.612c-0.957,-1.733 -10.452,-18.924 -11.276,-22.032c-5.486,-22.107 -10.081,-22.945 -11.265,-27.53c-0.58,-0.806 0.238,-1.1 -5.42,-11.162c-3.983,-17.255 -7.424,-15.797 -12.016,-32.744c-0.971,-3.582 -5.116,-10.183 -5.643,-11.022c-1.011,-3.633 -3.175,-2.351 -3.749,-6.201c-1.055,-5.162 -2.11,-10.324 -3.165,-15.486c-2.93,-7.176 -3.292,-6.435 -7.65,-12.514c1.033,-10.226 -6.181,-24.406 -9.526,-37.018l-1.776,-1.323c-0.602,-1.271 -5.366,-11.322 -6.554,-16.308c-1.793,-11.621 -1.535,-11.276 -5.254,-22.106l-2.028,-10.543c-0.648,-1.243 0.363,-1.496 -5.57,-16.614c-0.646,-2.61 -4.194,-16.931 -6.832,-32.906c-1.705,-7.447 -3.411,-14.894 -5.116,-22.341l-0.63,-5.372c-3.133,-8.293 -3.549,-7.886 -4.621,-16.901c-0.402,-9.081 -1.05,-8.454 -4.185,-16.785l-0.402,-5.486c-0.635,-5.401 -1.27,-10.801 -1.905,-16.202c-1.178,-7.498 -2.356,-14.996 -3.535,-22.494l-1.685,-10.969c-3.663,-16.727 -4.192,-16.359 -5.092,-33.341c-0.275,-7.265 -0.55,-14.531 -0.825,-21.796l-3.714,-5.948l-0.423,-16.504c-0.139,-5.494 -0.278,-10.989 -0.417,-16.483c-1.047,-3.769 -2.094,-7.538 -3.141,-11.308c-0.1,-3.517 -1.063,-37.208 -2.819,-43.89c-0.721,-2.743 -5.393,-3.174 -6.114,-5.917l0,-2634.115c0.722,-2.768 5.399,-3.246 6.121,-6.014c0.775,-2.97 -0.886,-3.101 2.84,-38.256c1.033,-3.774 2.066,-7.549 3.099,-11.323c0.164,-5.486 0.328,-10.972 0.492,-16.458l0.424,-16.523l3.846,-5.921c0.108,-5.475 0.216,-10.95 0.324,-16.425c2.352,-22.302 1.678,-21.998 6.738,-44.232l2.025,-16.314l-0.02,-5.551c1.469,-7.41 2.938,-14.82 4.408,-22.229c1.712,-7.417 3.425,-14.835 5.137,-22.252l1.282,-5.179c4.836,-17.455 13.676,-38.669 12.288,-54.854c1.099,-2.105 2.198,-4.21 3.297,-6.314c1.549,-3.762 3.098,-7.524 4.647,-11.286l1.93,-10.57c0.742,-1.663 -0.323,-1.536 5.298,-22.138c0.687,-2.279 5.056,-16.773 9.787,-28.104c4.777,-13.308 4.414,-13.02 7.051,-27.118c1.054,-5.052 5.926,-15.07 6.541,-16.336l1.886,-1.258c7.617,-21.565 6.529,-21.457 13.959,-43.16c0.515,-2.921 4.727,-0.944 14.677,-34.044c0.715,-1.025 0.538,-1.072 2.763,-9.931c2.136,-4.23 23.11,-45.77 22.516,-54.792c0.608,-1.169 3.214,0.165 3.822,-1.004c3.104,-5.968 1.203,-6.407 5.459,-11.095c1.212,-1.335 13.05,-28.676 22.72,-43.975c1.575,-2.491 0.501,-2.351 1.072,-5.029c5.786,-8.183 6.818,-7.146 9.792,-17.077c13.445,-18.036 8.778,-20.578 22.265,-38.763c4.403,-5.936 -1.101,-9.912 10.514,-16.853c1.409,-0.842 5.423,-8.885 6.653,-10.452c4.064,-4.967 3.525,-4.707 5.556,-10.9c0.9,-1.735 1.212,-1.492 12.063,-21.253c4.614,-8.403 7.598,-6.223 11.234,-16.829c5.17,-5.935 4.931,-5.642 9.789,-11.681c6.831,-7.86 6.26,-7.843 11.365,-16.565c5.189,-5.883 4.903,-5.554 10.099,-11.584c1.793,-1.906 3.586,-3.812 5.379,-5.718c3.86,-4.821 3.691,-4.511 6.033,-10.584c14.321,-16.445 26.66,-34.596 42.818,-51.037c2.165,-2.207 1.882,-2.13 11.987,-15.763c1.903,-1.795 3.806,-3.59 5.709,-5.385c8.329,-8.55 7.832,-8.182 15.461,-17.628c8.857,-10.973 8.115,-11.082 18.288,-20.501c24.649,-25.365 24.662,-24.881 49.671,-49.92c17.797,-19.042 16.312,-19.716 18.1,-21.03c2.269,-1.668 5.713,-1.097 7.981,-2.765c2.016,-1.647 4.031,-3.295 6.047,-4.942c6.101,-5.207 5.858,-4.985 11.444,-10.676c8.693,-8.386 8.446,-7.999 16.778,-16.426c5.243,-3.475 5.825,-1.853 15.791,-11.928c1.871,-1.817 3.743,-3.634 5.614,-5.451c2.035,-1.626 4.07,-3.252 6.105,-4.877c5.837,-5.622 5.536,-5.328 11.116,-10.93c18.914,-14.801 18.516,-14.676 37.654,-29.1c6.511,-4.699 6.066,-4.337 12.064,-9.753c1.894,-1.801 3.789,-3.602 5.683,-5.403c13.319,-12.038 14.845,-9.195 28.545,-21.145c8.462,-5.194 8.4,-4.616 15.967,-11.475c8.922,-5.439 8.624,-4.961 16.633,-11.09c5.866,-2.288 5.592,-2.083 10.61,-6.139c2.111,-1.531 4.223,-3.062 6.334,-4.593c8.511,-5.141 8.296,-4.483 16.213,-11.252c9.121,-5.187 8.705,-4.738 17.222,-10.461c1.287,-0.427 9.062,-3.008 15.197,-7.5c2.096,-1.473 4.191,-2.947 6.287,-4.42c1.646,-0.61 8.962,-3.32 19.815,-9.428c1.452,-1.086 15.768,-11.796 18.942,-12.454c11.869,-4.135 11.044,-4.869 22.03,-11.256c6.086,-2.003 5.66,-1.849 10.957,-5.573c1.557,-1.231 1.767,0.264 22.275,-10.925c6.307,-2.028 5.889,-1.905 11.009,-5.482c3.186,-1.057 6.373,-2.114 9.559,-3.17c2.155,-1.177 4.31,-2.353 6.465,-3.53c5.429,-3.501 5.501,-2.351 10.95,-5.807c3.438,-2.448 19.459,-7.141 21.188,-7.647c2.136,-1.202 4.272,-2.404 6.408,-3.606c24.724,-14.142 25.987,-14.229 28.539,-14.405c7.902,-1.152 7.713,-0.409 15.268,-3.367c27.928,-13.514 28.774,-10.782 56.696,-24.44c14.909,-2.115 14.445,-1.589 20.815,-3.567c3.851,-1.319 3.352,-1.239 17.635,-7.298c16.779,-5.498 16.694,-4.33 28.166,-10.657c19.203,-2.914 18.9,-2.455 37.599,-8.41c5.716,-2.844 5.837,-1.21 11.56,-4.032c11.454,-1.638 11.025,-1.646 22.111,-5.052c7.318,-1.622 14.635,-3.243 21.953,-4.865c11.595,-2.366 11.125,-2.297 22.582,-5.787c8.347,1.246 8.01,0.78 15.949,-2.28c7.463,-1.227 14.926,-2.454 22.389,-3.681c9.086,-1.206 18.172,-2.411 27.258,-3.617c3.143,-0.653 22.159,-4.603 39.538,-6.814c8.584,1.163 8.127,0.3 15.961,-2.635l5.549,-0.469c7.663,-0.64 15.325,-1.28 22.988,-1.92c16.569,1.596 16.249,1.375 32.38,-2.145c309.554,-2.286 309.167,-1.89 1505.213,-1.876c1323.773,0.016 1323.697,2.157 1438.801,1.864c11.813,1.573 11.474,6.431 37.922,1.989c9.504,0.733 19.007,1.467 28.511,2.2c10.509,4.134 10.348,4.559 21.493,2.864c2.702,0.34 2.094,0.844 33.589,5.516l6.001,1.491c7.269,0.926 14.538,1.852 21.806,2.779l5.536,0.192c11.055,3.584 10.717,3.315 22.159,4.901c8.191,2.575 7.692,2.831 16.058,1.886c19.566,5.835 19.994,3.08 39.226,9.813c7.416,1.537 14.831,3.074 22.247,4.61c12.082,4.019 11.564,3.848 22.88,8.623l15.706,3.012c11.901,1.325 12.871,-2.22 22.105,5.554c1.397,1.176 2.385,-1.955 21.915,6.364l1.015,2.137c17.27,4.04 16.261,5.327 16.66,5.502c5.162,1.032 10.324,2.064 15.486,3.096c2.213,0.484 36.296,13.518 39.442,14.721c3.669,1.403 2.966,1.686 6.325,3.596c19.677,7.876 19.804,6.662 21.307,7.675c3.904,1.533 17.803,3.665 21.526,6.992c4.733,4.23 5.86,1.68 11.01,5.697c1.767,0.387 3.535,0.774 5.302,1.161c3.515,2.765 1.997,5.033 22.299,10.031c0.58,0.095 -0.412,1.386 6.481,3.461c2.044,1.472 4.088,2.943 6.132,4.415c11.582,5.357 12.027,3.622 22.32,10.691c14.461,9.932 17.338,3.668 31.787,13.883c23.191,11.253 22.992,11.78 26.995,12.228c7.905,6.266 7.607,5.641 16.689,10.688c5.003,1.456 10.318,5.246 11.136,5.83c7.874,6.482 7.288,6.639 16.961,10.128c2.037,0.785 11.593,7.814 12.572,8.535c3.081,1.02 6.162,2.039 9.243,3.059c36.284,24.519 36.615,23.929 39.64,26.233c0.929,0.733 15.387,10.024 16.731,10.888l4.464,1.6c7.496,6.809 6.874,7.508 16.637,10.984c6.291,4.44 14.806,10.874 16.081,11.837c6.164,5.101 5.816,4.841 12.468,9.06c10.753,8.885 11.282,7.62 21.989,16.782c3.376,2.236 6.752,4.473 10.127,6.709c23.806,20.495 25.732,17.842 39.788,31.912c6.116,5.983 6.154,5.166 15.892,11.827c5.716,5.683 5.412,5.388 11.267,10.93c5.933,5.282 5.655,5.044 11.836,10.162c11.401,8.199 10.895,8.11 20.471,18.357c22.793,22.016 22.954,21.103 45.43,43.067c5.609,5.459 10.268,10.096 11.155,10.98c12.378,12.592 10.499,13.711 32.092,34.364c10.068,9.53 9.314,9.608 18.521,20.267c5.084,6.343 4.706,5.912 10.322,11.723c10.014,12.42 10.04,11.893 21.186,22.94c6.77,7.86 4.617,9.001 11.693,16.063c14.854,16.189 12.868,17.319 26.944,33.818c2.169,3.416 4.339,6.831 6.508,10.247c5.02,5.932 4.757,5.608 9.857,11.905c2.377,5.962 2.242,5.669 6.291,10.55c5.06,5.941 4.726,5.553 10.121,11.816c6.698,7.941 4.023,9.269 11.151,16.432c4.107,4.932 2.299,5.758 6.189,10.602c1.947,3.619 3.894,7.237 5.84,10.856c1.655,1.987 3.311,3.974 4.966,5.961c5.679,6.912 3.006,8.012 10.354,16.901c0.644,0.754 -0.04,1.089 6.475,10.563c6.173,8.001 3.623,9.201 10.227,16.928c5.961,8.421 4.767,8.565 10.959,16.925c5.243,7.079 2.731,8.036 11.073,22.144c8.81,8.828 3.344,16.799 22.388,38.313c3.505,17.263 8.033,15.065 12.75,32.369c1.653,6.064 4.852,10.33 5.446,11.123c5.381,7.177 3.243,7.594 6.793,15.972c0.475,0.673 1.221,-0.523 7.526,7.026c0.971,6.568 2.072,5.793 5.599,11.531c0.94,1.529 -5.097,3.242 5.974,21.627c1.016,1.688 10.009,16.621 10.773,22.143c1.978,11.637 0.956,11.794 7.335,21.432c0.483,0.863 -0.111,0.982 4.78,11.399c3.135,13.837 4.582,12.925 8.312,26.581l1.85,1.3c0.967,2.023 -0.648,2.3 8.353,26.756c4.87,14.478 4.804,13.964 10.138,27.952c1.197,2.111 2.394,4.223 3.591,6.334c2.045,19.632 4.842,18.588 8.35,37.705c1.456,3.8 2.911,7.6 4.367,11.4c1.921,7.871 0.166,7.651 2.188,15.936c0.333,1.363 0.367,1.246 4.959,16.819c1.896,7.39 3.793,14.78 5.689,22.17c3.695,11.496 5.674,25.466 5.992,27.712c1.337,5.621 2.675,11.242 4.012,16.863c0.679,7.227 1.357,14.455 2.036,21.682l1.933,6.167c0.748,5.405 1.496,10.811 2.243,16.216l0.985,5.478c4.498,16.426 3.907,16.258 5.479,33.313c0.099,5.466 0.198,10.931 0.297,16.397l3.91,5.92l0.418,16.532c0.172,5.481 0.344,10.962 0.515,16.443c1.034,3.777 2.069,7.554 3.103,11.331c0.139,1.336 1.739,16.695 1.739,16.695c0.706,7.168 -0.734,14.612 1.087,21.58c0.722,2.763 5.399,3.231 6.122,5.994Z" style="fill:#081220;fill-opacity:1;"/><path d="M3055.245,3444.825c-0.184,-965.368 1.826,-965.921 3.333,-967.32c6.277,-5.825 521.775,-1.118 884.282,-2.877c32.994,-0.16 32.241,-5.779 123.939,-84.242c25.591,-21.897 19.148,-26.563 19.099,-102.14c-0.093,-143.218 7.07,-148.143 -17.221,-169.659c-83.003,-73.526 -75.691,-92.472 -131.329,-92.578c-77.521,-0.149 -77.011,0.399 -154.937,0.291c-569.989,-0.788 -570.093,-0.111 -576.064,-2.724c-14.923,-6.532 -160.859,-150.118 -174.496,-163.536c-192.248,-189.152 -203.067,-185.654 -198.725,-196.31c3.462,-8.497 6.705,-3.818 36.178,-3.272c19.828,0.367 1343.422,-0.46 1356.065,0.491c18.531,1.394 15.176,8.79 171.294,156.908c140.128,132.947 139.065,133.798 140.219,137.783c4.921,16.983 1.377,392.554 1.055,426.688c-1.034,109.598 2.775,112.654 -12.901,128.349c-68.68,68.76 -122.619,117.479 -127.084,121.936c-18.588,18.558 -206.58,206.249 -235.616,228.649c-17.069,13.168 -656.861,-2.341 -666.611,8.921c-6.339,7.322 -2.335,270.759 -3.473,309.003c-0.67,22.506 -7.8,19.751 -98.458,109.522c-26.258,26.001 -323.551,320.387 -330.582,322.607c-12.715,4.016 -7.731,-7.286 -7.966,-166.488Z" style="fill:#868686;"/><path d="M2072.43,1638.651c433.225,0.368 435.452,-1.9 447.769,8.287c1.702,1.408 398.651,378.075 403.031,382.643c19.568,20.409 16.184,24.305 16.093,242.061c-0.365,869.394 1.111,871.158 -5.397,878.37c-14.827,16.428 -270.438,253.767 -294.07,275.71c-81.063,75.269 -81.907,75.985 -91.423,76.126c-21.269,0.316 -249.608,3.705 -265.886,-1.127c-8.597,-2.552 -141.476,-134.063 -199.261,-188.483c-17.607,-16.582 -216.606,-203.994 -217.242,-210.247c-0.997,-9.792 6.48,-6.669 261.723,-6.864c253.494,-0.193 256.311,1.858 269.897,-11.356c103.4,-100.569 103.492,-102.511 104.078,-114.9c2.219,-46.895 -3.22,-525.728 -2.246,-785.777c0.098,-26.281 -1.015,-28.368 -61.983,-88.381c-55.985,-55.107 -58.761,-52.739 -77.321,-52.986c-143.477,-1.907 -149.189,10.824 -175.498,-15.053c-17.859,-17.566 -200.781,-197.482 -223.391,-219.414c-13.627,-13.219 -169.167,-164.101 -169.016,-166.589c0.502,-8.266 59.207,-3.359 75.511,-2.187c3.84,0.276 188.262,0.174 204.633,0.165Z" style="fill:#868686;"/><path d="M1278.621,2564.941c-0.759,-43.773 -1.281,-43.403 -0.969,-415.038c0.081,-96.456 -7.099,-101.922 23.085,-130.024c27.747,-25.833 281.232,-261.837 348.842,-320.75c45.894,-39.99 50.81,-77.093 94.254,-34.075c183.303,181.503 234.19,227.26 351.967,345.245c19.242,19.276 32.299,21.64 28.282,30.089c-1.421,2.99 -2.735,1.936 -239.824,1.444c-53.979,-0.112 -54.383,5.466 -92.441,43.385c-70.22,69.962 -76.65,69.367 -76.415,103.429c0.824,119.142 0.646,235.489 0.646,691.725c-0,137.834 -4.963,142.687 20.124,164.419c65.551,56.784 174.642,171.167 188.287,182.367c33.665,27.633 231.047,227.275 270.428,261.318c0.898,0.776 18.321,15.838 -1.001,14.796c-41.042,-2.213 -40.889,-0.965 -398.138,-0.976c-121.585,-0.004 -125.522,4.581 -149.68,-18.472c-163.189,-155.723 -364.972,-336.698 -366.874,-342.734c-2.944,-9.343 -1.552,-528.476 -0.573,-576.147Z" style="fill:#868686;"/><path d="M2581.498,3647.409c-109.385,0.237 -936.909,0.237 -940.55,-0.018c-14.501,-1.015 -12.924,-5.896 -281.06,-253.79c-81.807,-75.631 -81.892,-77.692 -82.288,-87.28c-3.971,-96.032 1.392,-101.428 8.591,-98.208c14.38,6.432 358.729,337.012 370.764,338.452c7.792,0.932 905.119,2.372 914.098,-0.243c11.226,-3.269 228.213,-212.87 250.746,-231.548c38,-31.5 114.524,-117.922 120.961,-97.558c0.189,0.599 3.017,95.733 -1.087,106.058c-1.613,4.059 -337.882,319.587 -348.451,322.723c-0.906,0.269 -0.868,0.105 -11.724,1.412Z" style="fill:#449ef5;"/><path d="M3054.603,3781.325c3.222,-89.452 -11.511,-97.033 25.391,-131.306c8.482,-7.877 441.876,-425.943 452.22,-443.666c8.411,-14.411 -3.233,-288.036 7.44,-297.294c2.744,-2.381 3.019,-2.298 475.154,-2.461c153.696,-0.053 156.482,2.708 170.359,-10.939c131.048,-128.88 330.359,-317.212 343.094,-332.909c11.403,-14.055 9.529,11.805 9.435,13.093c-3.303,45.576 10.426,81.018 -14.137,104.96c-25.102,24.468 -299.95,292.368 -315.704,303.856c-16.497,12.03 -580.895,-2.851 -589.4,8.11c-9.373,12.079 8.039,237.004 -9.65,256.414c-10.48,11.5 -283.194,276.762 -307.876,300.77c-18.838,18.323 -225.263,219.108 -234.72,229.813c-4.492,5.085 -5.029,2.409 -11.607,1.558Z" style="fill:#71e431;"/><path d="M1873.208,3055.066c-39.499,0.037 -51.839,3.515 -70.739,-15.452c-17.896,-17.96 -40.396,-35.658 -40.613,-54.084c-4.424,-374.831 -1.225,-722.954 -0.647,-785.817c0.247,-26.846 5.483,-29.798 69.232,-92.6c27.095,-26.692 31.781,-21.587 164.512,-21.591c366.763,-0.011 367.882,-0.633 375.234,4.914c2.804,2.115 80.123,76.869 83.948,87.189c13.396,36.136 -21.906,11.205 -481.32,20.131c-40.644,0.79 -37.067,11.42 -87.823,58.094c-24.706,22.72 -19.705,27.051 -19.705,148.611c0.002,520.942 -0.992,522.187 4.617,529.566c6.992,9.197 9.518,6.564 103.318,100.892c28.492,28.652 -11.529,18.439 -100.016,20.148Z" style="fill:#449ef4;"/><path d="M2736.481,1655.427c2.127,0.061 21.248,0.61 26.28,4.111c5.729,3.986 280.519,266.11 297.397,283.116c120.484,121.398 120.978,122.923 135.619,124.556c41.8,4.663 41.797,1.223 525.747,0.666c223.653,-0.258 226.825,-3.133 251.931,18.313c70.719,60.41 70.721,76.949 70.722,85.847c0.019,158.62 0.622,158.019 -0.378,171.72c-1.354,18.55 -85.362,87.138 -90.671,85.287c-10.251,-3.573 1.919,-198.104 -6.153,-211.992c-4.598,-7.91 -51.707,-56.171 -56.04,-59.065c-11.304,-7.551 -12.67,-6.093 -606.585,-6.23c-107.471,-0.025 -112.515,6.477 -142.837,-24.952c-20.365,-21.108 -487.52,-462.048 -487.906,-463.917c-2.169,-10.497 27.686,-7.4 82.876,-7.46Z" style="fill:#72e532;"/><path d="M5248.857,445.479c4.261,2.644 4.864,-1.081 9.415,1.744c2.493,1.547 -1.241,2.825 0.854,4.628c1.307,1.125 3.861,-0.612 5.145,0.539c1.174,1.051 -0.522,3.658 0.68,4.676c5.015,4.252 6.378,1.342 11.101,5.538c1.257,1.117 -0.769,3.875 0.459,5.024c1.269,1.187 4,-0.978 5.205,0.274c0,0 -0.705,10.986 -0.767,11.941c-21.593,-20.653 -19.715,-21.772 -32.092,-34.364Z" style="fill:#585d65;fill-opacity:0.35;"/><path d="M1209.521,20.278c1.729,0.162 11.046,1.037 21.691,0.742l5.396,1.807c-9.086,1.206 -18.172,2.411 -27.258,3.617c-5.353,0.281 -10.706,0.562 -16.059,0.842c0.017,-0.009 -0.195,-4.913 16.229,-7.008Z" style="fill:#484d55;fill-opacity:0.34;"/><path d="M805.55,152.643c8.661,1.076 8.388,-0.389 16.959,0.884c-20.508,11.189 -20.718,9.694 -22.275,10.925l-11.245,-0.341c1.448,-0.708 1.139,-0.899 16.561,-11.468Z" style="fill:#494e55;fill-opacity:0.25;"/><path d="M4861.283,163.683c10.925,3.463 10.553,2.753 21.619,6.852c5.79,2.145 5.081,2.579 10.842,5.503l-5.466,-0.127c-4.003,-0.448 -3.804,-0.975 -26.995,-12.228Z" style="fill:#3d424a;fill-opacity:0.33;"/><path d="M1065.661,53.294c11.132,1.69 10.909,1.694 21.998,0.165l5.147,-1.319c-18.699,5.954 -18.396,5.496 -37.599,8.41c3.484,-2.419 6.969,-4.837 10.453,-7.256Z" style="fill:#393f47;fill-opacity:0.35;"/><path d="M5577.703,4430.826c0.691,4.983 1.383,9.965 2.074,14.948c-6.625,10.589 -6.053,10.456 -11.174,16.809c2.746,-16.382 4.67,-15.569 9.1,-31.757Z" style="fill:#383d45;fill-opacity:0.31;"/><path d="M4451.897,25.862c21.043,0.417 21.022,0.439 21.749,0.397c5.489,2.13 10.979,4.26 16.468,6.389l-16.058,-1.886c-11.442,-1.587 -11.103,-1.317 -22.159,-4.901Z" style="fill:#40454d;fill-opacity:0.38;"/><path d="M5568.603,4462.582c-1.617,28.479 -5.425,27.097 -5.578,27.673c-0.102,-1.242 -0.476,-0.747 -2.445,-15.388c3.121,-6.84 4.713,-5.423 8.023,-12.285Z" style="fill:#393d44;fill-opacity:0.25;"/><path d="M822.124,147.352l11.395,0.694c-5.12,3.577 -4.702,3.454 -11.009,5.482c-8.572,-1.273 -8.299,0.192 -16.959,-0.884c5.524,-1.764 11.049,-3.528 16.573,-5.292Z" style="fill:#4d5157;fill-opacity:0.25;"/><path d="M5324.674,4876.713c1.421,14.077 -1.333,14.73 -14.704,18.193c7.431,-9.684 6.705,-9.504 14.704,-18.193Z" style="fill:#4f535b;fill-opacity:0.32;"/><path d="M5198.629,5010.467c-4.35,9.327 -2.164,15.655 -15.578,12.138c4.85,-5.227 5.063,-4.59 15.578,-12.138Z" style="fill:#60646b;fill-opacity:0.26;"/><path d="M788.989,164.111l11.245,0.341c-5.297,3.725 -4.871,3.57 -10.957,5.573c-8.607,-1.493 -8.441,0.239 -17.088,-0.992c5.6,-1.641 11.2,-3.281 16.8,-4.922Z" style="fill:#4a4e55;fill-opacity:0.25;"/><path d="M12.914,4108.913l3.714,5.948c-1.012,11.122 -1.475,10.736 0.825,21.796c-13.167,-12.331 -6.943,-14.712 -4.539,-27.744Z" style="fill:#3c3f44;fill-opacity:0.34;"/><path d="M4650.776,70.135c3.552,2.097 7.104,4.193 10.655,6.29c-3.188,0.613 -6.376,1.226 -9.563,1.839c-0.399,-0.175 0.61,-1.462 -16.66,-5.502c5.189,-0.876 10.379,-1.751 15.568,-2.627Z" style="fill:#464b53;fill-opacity:0.31;"/><path d="M4297.04,8.831c19.332,0.377 18.827,-0.372 37.922,1.989c-26.448,4.442 -26.109,-0.417 -37.922,-1.989Z" style="fill:#383f48;fill-opacity:0.54;"/><path d="M1071.456,5352.063l16.08,1.336c5.588,1.6 11.176,3.199 16.765,4.799c-2.18,-0.099 -27.255,-1.235 -27.255,-1.235c-2.431,-0.481 -3.159,-4.419 -5.59,-4.9Z" style="fill:#3d424a;fill-opacity:0.35;"/><path d="M5657.749,4064.62c-0.145,26.667 -1.089,26.301 -3.953,38.747c0.762,-19.898 -0.936,-19.737 3.953,-38.747Z" style="fill:#3e444e;fill-opacity:0.51;"/><path d="M38.878,4258.835l0.63,5.372c-0.876,10.327 -2.734,19.859 -3.068,21.569c-5.827,-13.593 -4.466,-14.084 2.438,-26.941Z" style="fill:#464b52;fill-opacity:0.18;"/><path d="M1054.932,5346.634c7.566,-0.892 6.928,0.22 32.604,6.765c0,0 -16.08,-1.336 -16.08,-1.336c-5.508,-1.81 -11.016,-3.62 -16.524,-5.429Z" style="fill:#393e46;fill-opacity:0.42;"/><path d="M5530.582,838.793c4.442,10.939 3.931,10.62 3.946,22.497c-6.305,-7.549 -7.051,-6.353 -7.526,-7.026c3.235,-7.639 2.534,-7.291 3.579,-15.471Z" style="fill:#4c4f54;fill-opacity:0.17;"/><path d="M5447.366,700.488c10.262,5.21 10.759,4.672 11.063,5.617c1.158,3.599 -1.994,7.712 -0.836,11.311c-6.605,-7.728 -4.054,-8.927 -10.227,-16.928Z" style="fill:#52565d;fill-opacity:0.29;"/><path d="M490.318,5032.414c8.88,7.964 9.824,6.471 17.428,15.398c-1.468,-1.139 -4.08,0.607 -5.548,-0.532c-3.053,-2.37 -1.901,-3.795 -5.957,-4.431c-4.12,-0.646 -4.333,-1.022 -4.52,-1.351c-2.534,-4.465 0.965,-4.911 -1.404,-9.084Z" style="fill:#454a52;fill-opacity:0.38;"/><path d="M57.026,4336.068l2.028,10.543c0.255,5.367 0.51,10.734 0.764,16.101c-0.515,-2.369 -4.296,-3.085 -4.811,-5.454c-0,-0 1.856,-19.495 2.018,-21.19Z" style="fill:#3f434b;fill-opacity:0.32;"/><path d="M5413.901,4761.218c-1.559,17.532 -7.237,13.979 -11.538,16.119c7.174,-7.512 4.368,-8.972 11.538,-16.119Z" style="fill:#3b3f46;fill-opacity:0.27;"/><path d="M1320.645,10.988c16.251,-1.668 15.684,-1.688 32.38,-2.145c-16.131,3.519 -15.811,3.74 -32.38,2.145Z" style="fill:#434952;fill-opacity:0.52;"/><path d="M5402.391,629.172c4.252,2.341 9.467,-0.742 11.151,16.432c-7.128,-7.163 -4.453,-8.491 -11.151,-16.432Z" style="fill:#353a42;fill-opacity:0.27;"/><path d="M999.606,5330.144c11.943,-1.512 11.742,-0.65 21.905,5.325l-11.198,1.08c-3.569,-2.135 -7.138,-4.27 -10.707,-6.406Z" style="fill:#484d53;fill-opacity:0.36;"/><path d="M1065.661,53.294c10.728,-4.63 10.999,-4.351 21.998,0.165c-11.089,1.529 -10.867,1.525 -21.998,-0.165Z" style="fill:#4e5258;fill-opacity:0.15;"/><path d="M1143.154,5369.241c14.274,1.287 13.81,1.305 27.359,5.053c-2.964,0.081 -2.438,-0.494 -5.299,-0.415c-0.857,0.024 -0.793,0.038 -10.699,0.512c-3.787,-1.717 -7.574,-3.433 -11.361,-5.15Z" style="fill:#41474f;fill-opacity:0.37;"/><path d="M4451.897,25.862c10.823,-4.903 11.246,-5.029 21.749,0.397c-0.726,0.041 -0.706,0.019 -21.749,-0.397Z" style="fill:#595d62;fill-opacity:0.21;"/><path d="M187.598,4655.698c6.721,7.609 3.9,9.053 10.937,16.238c-0.872,-0.394 -10.895,-4.922 -10.895,-4.922c-1.154,-3.591 1.112,-7.724 -0.042,-11.315Z" style="fill:#3c4047;fill-opacity:0.26;"/><path d="M872.343,126.062c3.113,0.609 6.225,1.219 9.338,1.828c-1.729,0.507 -17.75,5.199 -21.188,7.647c5.065,-6.299 5.014,-5.76 11.85,-9.476Z" style="fill:#383c43;fill-opacity:0.32;"/><path d="M4418.554,21.401c6.083,-2.502 6.014,-1.719 11.893,-4.891c6.741,-3.638 6.337,-0.168 14.822,5.293c-10.725,-0.915 -10.182,-0.834 -20.714,1.089l-6.001,-1.491Z" style="fill:#42464d;fill-opacity:0.24;"/><path d="M401.824,4949.412l4.999,0.538c5.681,6 5.335,5.633 10.726,11.394l-4.669,-0.829c-1.178,-1.181 -3.792,0.59 -4.97,-0.591c-4.614,-4.625 -1.687,-6.086 -6.086,-10.513Z" style="fill:#4a5058;fill-opacity:0.41;"/><path d="M1209.521,20.278c10.682,-5.33 11.35,-4.988 21.691,0.742c-10.645,0.296 -19.963,-0.579 -21.691,-0.742Z" style="fill:#5e6166;fill-opacity:0.11;"/><path d="M252.759,4761.239c7.096,7.329 4.471,8.937 11.344,16.217c-4.342,-2.361 -9.433,0.734 -11.344,-16.217Z" style="fill:#363a41;fill-opacity:0.29;"/><path d="M5490.622,4633.609l0.11,5.664c-3.728,7.191 -3.523,7.188 -10.554,11.256c6.834,-7.753 4.2,-9.056 10.444,-16.92Z" style="fill:#3a3f45;fill-opacity:0.31;"/><path d="M833.242,141.939c3.279,0.979 6.558,1.958 9.837,2.937c-3.186,1.057 -6.373,2.114 -9.559,3.17l-11.395,-0.694c3.706,-1.804 7.412,-3.609 11.118,-5.413Z" style="fill:#50545a;fill-opacity:0.27;"/><path d="M5330.978,534.773c1.605,0.906 3.924,-0.859 5.53,0.047c1.196,0.675 4.22,2.382 6.163,16.015c-7.075,-7.062 -4.922,-8.203 -11.693,-16.063Z" style="fill:#3b4149;fill-opacity:0.32;"/><path d="M1320.357,5395.979c14.036,-2.345 13.688,-0.734 27.088,3.379c-9.029,-1.126 -18.059,-2.253 -27.088,-3.379Z" style="fill:#484d55;fill-opacity:0.56;"/><path d="M240.385,4739.949c0.353,1.307 2.533,9.364 7.935,14.943c-9.231,-4.051 -10.875,-4.835 -7.935,-14.943Z" style="fill:#464a52;fill-opacity:0.21;"/><path d="M4801.044,134.695c11.02,-2.709 10.863,-2.398 21.193,1.531c-7.707,0.835 -7.432,0.406 -15.06,2.884c-2.044,-1.472 -4.088,-2.943 -6.132,-4.415Z" style="fill:#4a4e53;fill-opacity:0.18;"/><path d="M4313.678,5399.51c13.602,-4.21 13.112,-5.753 27.097,-3.578c-13.767,2.086 -13.193,2.078 -27.097,3.578Z" style="fill:#434851;fill-opacity:0.56;"/><path d="M5556.874,916.59c8.449,16.024 10.089,14.65 10.312,16.168c0.293,1.995 -3.27,3.269 -2.977,5.264c-6.378,-9.637 -5.357,-9.795 -7.335,-21.432Z" style="fill:#3b4048;fill-opacity:0.32;"/><path d="M4445.269,21.802l1.093,3.868c-7.269,-0.926 -14.538,-1.852 -21.806,-2.779c10.532,-1.923 9.989,-2.004 20.714,-1.089Z" style="fill:#4d535c;fill-opacity:0.42;"/><path d="M1215.332,5384.991c7.164,0.639 14.328,1.278 21.492,1.917c-10.873,3.925 -11.138,3.909 -21.492,-1.917Z" style="fill:#484c51;fill-opacity:0.3;"/><path d="M5643.005,1231.013c4.164,-13.872 0.719,-15.385 1.956,-15.347c1.667,0.051 12.588,0.384 -0.972,20.825l-0.985,-5.478Z" style="fill:#51555c;fill-opacity:0.24;"/><path d="M4696.15,5317.142c11.431,-4.649 19.011,-3.782 20.679,-3.592c-9.776,5.268 -9.773,6.101 -20.679,3.592Z" style="fill:#3f434a;fill-opacity:0.36;"/><path d="M4713.12,99.677c12.468,-0.37 13.587,-2.001 21.307,7.675c-1.502,-1.013 -1.629,0.201 -21.307,-7.675Z" style="fill:#3c4149;fill-opacity:0.36;"/><path d="M418.408,4966.022l4.525,1.018c5.438,5.743 5.068,5.352 10.746,11.366c-2.432,-1.735 -6.193,-0.699 -8.624,-2.434c-0.779,-0.556 1.633,-1.841 -6.647,-9.949Z" style="fill:#363c45;fill-opacity:0.44;"/><path d="M5297.812,4910.592c-1.536,9.171 -0.955,9.517 -1.659,9.904c-2.725,1.498 -6.522,-0.266 -9.247,1.232c5.428,-5.875 5.175,-5.615 10.906,-11.136Z" style="fill:#484d55;fill-opacity:0.34;"/><path d="M264.297,629.205c-4.858,6.04 -4.619,5.746 -9.789,11.681c1.11,-2.882 -1.156,-2.921 0.047,-6.046c0.323,-0.84 0.722,-0.417 9.742,-5.635Z" style="fill:#40454c;fill-opacity:0.24;"/><path d="M5639.219,1193.308c0.483,0.822 6.031,10.273 6.031,10.273c-2.367,5.592 -2.038,5.093 -4.488,11.216l-1.933,-6.167c0.948,-7.686 1.188,-7.138 0.39,-15.322Z" style="fill:#444950;fill-opacity:0.32;"/><path d="M86.109,960.273c3.314,15.76 3.216,15.349 3.332,15.768l-1.886,1.258c-4.011,-8.51 -4.402,-8.499 -1.446,-17.026Z" style="fill:#4d5158;fill-opacity:0.16;"/><path d="M5580.593,960.252c2.871,8.555 2.504,8.536 -1.441,17.049l-1.85,-1.3c0.325,-1.245 0.163,-1.087 3.291,-15.749Z" style="fill:#4c5057;fill-opacity:0.16;"/><path d="M4391.151,5390.99l16.047,0.43c-0.685,0.701 2.435,5.48 -4.981,5.1c0,0 -10.18,-5.088 -11.066,-5.531Z" style="fill:#505459;fill-opacity:0.21;"/><path d="M70.863,4385.026l1.776,1.323c-0.993,5.207 -1.986,10.413 -2.978,15.62c-3.06,-8.815 -2.52,-8.773 1.203,-16.943Z" style="fill:#4a4f56;fill-opacity:0.18;"/><path d="M4634.193,70.626c8.486,-3.594 8.431,-3.682 16.583,-0.49c-5.189,0.876 -10.379,1.751 -15.568,2.627l-1.015,-2.137Z" style="fill:#484d53;fill-opacity:0.2;"/><path d="M1154.515,5374.39c9.906,-0.474 9.842,-0.488 10.699,-0.512c2.861,-0.079 2.335,0.497 5.299,0.415c-9.888,5.254 -9.807,6.128 -10.651,5.66c-3.741,-2.072 -1.958,-3.687 -5.347,-5.564Z" style="fill:#6a6e73;fill-opacity:0.16;"/><path d="M4589.865,5352.593l-5.823,5.356c-5.381,-0.042 -10.763,-0.085 -16.144,-0.127c10.785,-3.926 10.41,-3.545 21.967,-5.229Z" style="fill:#3e444d;fill-opacity:0.38;"/><path d="M390.585,4932.996c5.639,5.823 5.328,5.499 10.84,11.295l-5.01,-0.484l-5.526,-0.029c-0.101,-3.594 -0.202,-7.188 -0.303,-10.782Z" style="fill:#50555d;fill-opacity:0.43;"/><path d="M5243.284,4966.586l-0.624,4.882c-1.352,1.251 1.248,4.274 -0.104,5.524c-0,0 -9.889,0.216 -10.748,0.235c5.952,-5.649 5.672,-5.384 11.476,-10.641Z" style="fill:#51575f;fill-opacity:0.43;"/><path d="M298.366,4826.441c4.678,6.381 8.924,11.123 9.751,12.047c-2.67,-1.602 -2.878,1.214 -5.4,-0.3c-0.859,-0.516 -0.322,-0.87 -4.351,-11.747Z" style="fill:#4b4f55;fill-opacity:0.26;"/><path d="M540.082,335.494c-5.58,5.603 -5.279,5.308 -11.116,10.93l0.542,-4.938c4.474,-4.449 3.925,-4.791 10.574,-5.993Z" style="fill:#454a52;fill-opacity:0.37;"/><path d="M484.679,385.107c-5.586,5.691 -5.343,5.469 -11.444,10.676l0.654,-4.814c1.419,-1.23 -1.497,-4.402 -0.079,-5.632c0.657,-0.57 0.805,-0.017 10.869,-0.23Z" style="fill:#595e67;fill-opacity:0.4;"/><path d="M5594.022,4380.723l2.328,-1.027c3.145,8.189 2.997,8.427 -0.648,16.123c-0.56,-5.032 -1.12,-10.064 -1.68,-15.095Z" style="fill:#444950;fill-opacity:0.23;"/><path d="M4766.962,120.042c8.433,-3.436 8.276,-3.706 16.89,-0.774c-3.863,0.645 -7.725,1.29 -11.588,1.935c-1.767,-0.387 -3.535,-0.774 -5.302,-1.161Z" style="fill:#50545a;fill-opacity:0.18;"/><path d="M833.242,141.939c8.02,-2.745 7.939,-3.385 16.302,-0.593c-2.155,1.177 -4.31,2.353 -6.465,3.53c-3.279,-0.979 -6.558,-1.958 -9.837,-2.937Z" style="fill:#494d54;fill-opacity:0.23;"/><path d="M384.835,4927.682c1.917,1.771 3.834,3.542 5.751,5.314c0.101,3.594 0.202,7.188 0.303,10.782c-1.713,-4.014 -3.918,-1.712 -5.525,-5.476c-0.334,-0.782 -0.039,-0.787 -0.529,-10.62Z" style="fill:#5e6269;fill-opacity:0.3;"/><path d="M1010.07,69.468c8.836,-3.236 8.834,-2.41 16.972,1.739c-15.633,-2.117 -15.636,-1.458 -16.972,-1.739Z" style="fill:#5f6268;fill-opacity:0.12;"/><path d="M5577.703,4430.826l2.234,-1.316c3.172,8.363 3.083,8.271 -0.16,16.264c-0.691,-4.983 -1.383,-9.965 -2.074,-14.948Z" style="fill:#474b52;fill-opacity:0.21;"/><path d="M1132.668,38.507c9.131,-5.33 9.026,-6.159 9.836,-5.742c2.381,1.227 3.546,4.199 5.927,5.426c-5.254,0.105 -10.508,0.21 -15.762,0.316Z" style="fill:#54585f;fill-opacity:0.2;"/><path d="M4567.899,5357.822c5.381,0.042 10.763,0.085 16.144,0.127c-7.826,3.688 -8.063,3.638 -16.144,-0.127Z" style="fill:#575b61;fill-opacity:0.2;"/><path d="M4446.574,5382.882l5.501,-0.64l15.942,-2.712c-10.07,5.415 -10.106,5.814 -21.443,3.352Z" style="fill:#3f4248;fill-opacity:0.35;"/><path d="M1276.148,16.013c10.01,-5.433 10.078,-5.847 21.51,-3.104l-5.549,0.469c-5.32,0.878 -10.641,1.757 -15.961,2.635Z" style="fill:#3f4349;fill-opacity:0.36;"/><path d="M5457.955,4689.223l4.715,-0.651c-3.971,7.046 -3.376,7.097 -10.49,11.519c3.831,-5.09 2.182,-5.611 5.775,-10.868Z" style="fill:#3a3f47;fill-opacity:0.26;"/><path d="M5342.024,4855.227c-0.191,8.718 -0.016,10.69 -9.946,11.974c4.884,-6.321 4.503,-5.871 9.946,-11.974Z" style="fill:#4a5059;fill-opacity:0.42;"/><path d="M5265.371,4944.414c-0.789,9.549 -0.309,9.687 -0.852,10.313c-1.175,1.354 -4.201,-1.235 -5.375,0.118l-4.772,0.702c5.422,-5.954 5.127,-5.653 10.999,-11.132Z" style="fill:#50555e;fill-opacity:0.43;"/><path d="M4413.242,5387.151l-6.045,4.269l-16.047,-0.43c11.101,-3.135 10.781,-2.836 22.091,-3.839Z" style="fill:#4a5059;fill-opacity:0.47;"/><path d="M285.76,601.056c-5.196,6.03 -4.91,5.7 -10.099,11.584c3.456,-7.125 2.975,-7.212 10.099,-11.584Z" style="fill:#3f434a;fill-opacity:0.31;"/><path d="M1132.668,38.507c5.254,-0.105 10.508,-0.21 15.762,-0.316c-7.318,1.622 -14.635,3.243 -21.953,4.865l6.19,-4.549Z" style="fill:#383f48;fill-opacity:0.41;"/><path d="M4363.473,13.021c11.207,-2.852 11.145,-2.654 21.493,2.864c-7.164,-0.955 -14.329,-1.909 -21.493,-2.864Z" style="fill:#3f4248;fill-opacity:0.36;"/><path d="M4363.473,13.021c7.164,0.955 14.329,1.909 21.493,2.864c-11.145,1.696 -10.984,1.271 -21.493,-2.864Z" style="fill:#40464e;fill-opacity:0.58;"/><path d="M872.343,126.062c7.752,-3.036 7.617,-4.022 15.746,-1.778c-2.136,1.202 -4.272,2.404 -6.408,3.606c-3.113,-0.609 -6.225,-1.219 -9.338,-1.828Z" style="fill:#3b4047;fill-opacity:0.25;"/><path d="M1247.886,5387.192c11.471,1.061 11.101,0.775 22.096,3.753c-7.365,-1.251 -14.73,-2.502 -22.096,-3.753Z" style="fill:#474d56;fill-opacity:0.47;"/><path d="M5237.702,434.499c3.718,3.66 7.437,7.32 11.155,10.98c-0.887,-0.883 -5.547,-5.521 -11.155,-10.98Z" style="fill:#434953;fill-opacity:0.45;"/><path d="M579.236,297.038c3.521,-0.132 7.042,-0.264 10.564,-0.396c-5.998,5.416 -5.553,5.054 -12.064,9.753c0.5,-3.119 1,-6.238 1.501,-9.357Z" style="fill:#4c525a;fill-opacity:0.43;"/><path d="M121.05,883.382l-0.209,5.525c-2.225,8.858 -2.048,8.906 -2.763,9.931c-1.667,-8.198 -0.441,-7.962 2.972,-15.455Z" style="fill:#42464c;fill-opacity:0.25;"/><path d="M5468.533,4677.898c-1.954,3.558 -3.909,7.116 -5.863,10.674l-4.715,0.651c5.434,-5.666 9.744,-10.408 10.578,-11.325Z" style="fill:#40444a;fill-opacity:0.3;"/><path d="M357.655,501.371c0.011,3.733 0.021,7.466 0.032,11.198c-1.903,1.795 -3.806,3.59 -5.709,5.385c0.247,-1.38 0.903,-0.702 5.678,-16.583Z" style="fill:#30343b;fill-opacity:0.27;"/><path d="M16.628,4114.861c0.275,7.265 0.55,14.531 0.825,21.796c-2.301,-11.06 -1.838,-10.674 -0.825,-21.796Z" style="fill:#3f454e;fill-opacity:0.58;"/><path d="M59.055,4346.611c3.719,10.831 3.46,10.486 5.254,22.106l-4.489,-6.006c-0.255,-5.367 -0.51,-10.734 -0.764,-16.101Z" style="fill:#333841;fill-opacity:0.44;"/><path d="M5159.965,362.913c9.148,0.701 10.336,1.093 11.836,10.162c-6.182,-5.118 -5.903,-4.88 -11.836,-10.162Z" style="fill:#424751;fill-opacity:0.47;"/><path d="M4768.125,5289.183c7.511,-2.097 6.84,-2.366 15.156,-3.443c-7.318,3.546 -6.691,5.396 -15.156,3.443Z" style="fill:#3a4048;fill-opacity:0.37;"/><path d="M4529.34,42.462c8.317,-3.195 8.303,-2.668 15.956,1.281c-5.319,-0.427 -10.637,-0.854 -15.956,-1.281Z" style="fill:#4f5359;fill-opacity:0.3;"/><path d="M595.483,291.238c-1.894,1.801 -3.789,3.602 -5.683,5.403c-3.521,0.132 -7.042,0.264 -10.564,0.396c3.531,-1.217 2.3,-2.882 5.523,-3.992c0.823,-0.283 0.794,-0.134 10.724,-1.807Z" style="fill:#2f333a;fill-opacity:0.31;"/><path d="M5299.47,500.11c9.03,2.35 8.825,3.45 10.322,11.723c-5.615,-5.811 -5.238,-5.38 -10.322,-11.723Z" style="fill:#40464f;fill-opacity:0.46;"/><path d="M32.253,1165.483c-0.652,5.322 -1.304,10.645 -1.956,15.967c-2.553,-8.395 -1.904,-8.299 1.956,-15.967Z" style="fill:#5c5f64;fill-opacity:0.27;"/><path d="M916.628,109.88c7.353,-3.568 6.811,-5.228 15.268,-3.367c-7.555,2.958 -7.366,2.215 -15.268,3.367Z" style="fill:#393e47;fill-opacity:0.37;"/><path d="M4424.29,5386.761c5.305,-0.632 10.61,-1.263 15.915,-1.895c-7.765,4.241 -7.763,4.684 -15.915,1.895Z" style="fill:#50545a;fill-opacity:0.32;"/><path d="M695.897,5185.895c6.249,1.408 5.7,1.841 10.707,5.825c-0.863,0.04 -10.786,0.505 -10.786,0.505c-1.516,-1.468 1.596,-4.862 0.08,-6.329Z" style="fill:#494f58;fill-opacity:0.36;"/><path d="M231.21,678.968c-2.032,6.194 -1.492,5.933 -5.556,10.9c-0.056,-0.895 -0.698,-11.192 -0.698,-11.192c1.453,-1.498 4.801,1.79 6.254,0.292Z" style="fill:#5c616a;fill-opacity:0.36;"/><path d="M27.26,1187.772c-0.457,5.302 -0.914,10.604 -1.371,15.907c-3.074,-8.267 -2.572,-8.247 1.371,-15.907Z" style="fill:#484c53;fill-opacity:0.33;"/><path d="M4512.79,5370.087l15.983,-1.602c-7.857,3.888 -7.833,4.351 -15.983,1.602Z" style="fill:#4c5157;fill-opacity:0.32;"/><path d="M35.434,1159.197c-1.712,7.417 -3.425,14.835 -5.137,22.252c0.652,-5.322 1.304,-10.645 1.956,-15.967l3.181,-6.285Z" style="fill:#363c44;fill-opacity:0.49;"/><path d="M396.414,4943.807l5.01,0.484c1.799,1.886 3.599,3.773 5.398,5.659l-4.999,-0.538c-1.803,-1.868 -3.606,-3.736 -5.409,-5.604Z" style="fill:#555b63;fill-opacity:0.41;"/><path d="M1171.012,32.405c7.639,-3.897 7.567,-4.638 15.949,-2.28l-15.949,2.28Z" style="fill:#575b60;fill-opacity:0.31;"/><path d="M4529.34,42.462c5.319,0.427 10.637,0.854 15.956,1.281l6.292,3.329c-7.416,-1.537 -14.831,-3.074 -22.247,-4.61Z" style="fill:#323841;fill-opacity:0.47;"/><path d="M5248.989,4961.229c-2.11,3.413 -4.219,6.826 -6.329,10.239c-0,0 0.624,-4.882 0.624,-4.882c1.902,-1.786 3.803,-3.571 5.705,-5.357Z" style="fill:#50565e;fill-opacity:0.43;"/><path d="M25.91,1209.23l-2.025,16.314c-2.347,-8.368 -1.062,-8.095 2.025,-16.314Z" style="fill:#494f5a;fill-opacity:0.43;"/><path d="M5254.372,4955.546l4.772,-0.702c-3.385,2.128 -6.77,4.256 -10.155,6.384c1.794,-1.894 3.588,-3.789 5.383,-5.683Z" style="fill:#4d535b;fill-opacity:0.44;"/><path d="M5636.793,1186.948l2.426,6.36c0.797,8.183 0.558,7.636 -0.39,15.322c-0.679,-7.227 -1.357,-14.455 -2.036,-21.682Z" style="fill:#333942;fill-opacity:0.48;"/><path d="M4535.093,5365.512l-6.321,2.973l-15.983,1.602c7.435,-1.525 14.869,-3.05 22.304,-4.575Z" style="fill:#2e343d;fill-opacity:0.49;"/><path d="M1193.292,27.286c5.353,-0.281 10.706,-0.562 16.059,-0.842c-7.463,1.227 -14.926,2.454 -22.389,3.681l6.331,-2.839Z" style="fill:#333941;fill-opacity:0.47;"/><path d="M30.297,1181.449c-1.469,7.41 -2.938,14.82 -4.408,22.229c0.457,-5.302 0.914,-10.604 1.371,-15.907l3.037,-6.323Z" style="fill:#2f353d;fill-opacity:0.48;"/><path d="M473.888,390.969l-0.654,4.814c-2.016,1.647 -4.031,3.295 -6.047,4.942c1.797,-10.6 4.922,-8.019 6.701,-9.756Z" style="fill:#4d525b;fill-opacity:0.42;"/><path d="M445.072,4989.2c1.955,1.727 3.911,3.454 5.866,5.181l0.743,4.727c-1.858,-1.809 -3.717,-3.618 -5.575,-5.428l-1.035,-4.48Z" style="fill:#494e57;fill-opacity:0.43;"/><path d="M4661.431,76.426l5.922,4.935c-5.162,-1.032 -10.324,-2.064 -15.486,-3.096c3.188,-0.613 6.376,-1.226 9.563,-1.839Z" style="fill:#363b44;fill-opacity:0.43;"/><path d="M55.304,1065.579l3.575,5.416l-1.93,10.57l-2.161,-4.526l0.515,-11.459Z" style="fill:#373d46;fill-opacity:0.36;"/><path d="M412.88,4960.515l4.669,0.829c1.795,1.899 3.589,3.797 5.384,5.696l-4.525,-1.018c-1.843,-1.835 -3.685,-3.671 -5.528,-5.506Z" style="fill:#424851;fill-opacity:0.44;"/><path d="M4938.884,5204.432c-5.726,7.952 -5.358,8.4 -6.184,8.588c-2.652,0.604 -1.331,-2.687 -4.279,-2.016c5.04,-4.138 5.523,-2.721 10.463,-6.572Z" style="fill:#50555c;fill-opacity:0.34;"/><path d="M744.878,5214.728c6.175,1.946 5.869,1.657 11.047,5.393l-5.258,-0.602c-1.93,-1.597 -3.859,-3.194 -5.789,-4.792Z" style="fill:#424851;fill-opacity:0.44;"/><path d="M12.552,1308.646c-0.164,5.486 -0.328,10.972 -0.492,16.458l-2.594,-5.105c1.029,-3.785 2.058,-7.569 3.086,-11.354Z" style="fill:#444a54;fill-opacity:0.55;"/><path d="M5654.094,1308.653c1.028,3.785 2.055,7.569 3.083,11.354l-2.568,5.089c-0.172,-5.481 -0.344,-10.962 -0.515,-16.443Z" style="fill:#454b55;fill-opacity:0.55;"/><path d="M750.667,5219.52l5.258,0.602l9.127,3.44c-7.871,0.659 -7.237,-0.599 -14.385,-4.041Z" style="fill:#2b313a;fill-opacity:0.39;"/><path d="M12.074,4075.926c0.139,5.494 0.278,10.989 0.417,16.483c-1.025,-3.785 -2.051,-7.571 -3.076,-11.356l2.659,-5.127Z" style="fill:#434a53;fill-opacity:0.56;"/><path d="M5643.418,4181.125c1.576,8.53 0.493,8.308 -2.386,16.203c0.795,-5.401 1.59,-10.802 2.386,-16.203Z" style="fill:#484f58;fill-opacity:0.47;"/><path d="M529.508,341.487l-0.542,4.938c-2.035,1.626 -4.07,3.252 -6.105,4.877c0.537,-2.35 1.239,-1.668 1.759,-3.944c0.963,-4.217 2.396,-2.878 4.888,-5.871Z" style="fill:#3c424c;fill-opacity:0.32;"/><path d="M5109.704,5087.504c-1.263,1.206 1.104,4.523 -10.156,6.535c4.562,-4.284 4.15,-4.215 10.156,-6.535Z" style="fill:#545961;fill-opacity:0.44;"/><path d="M971.806,5319.079l15.448,3.27c-8.247,1.204 -7.787,0.013 -15.448,-3.27Z" style="fill:#303740;fill-opacity:0.42;"/><path d="M89.815,4435.88c1.055,5.162 2.11,10.324 3.165,15.486c-3.006,-7.591 -4.344,-7.148 -3.165,-15.486Z" style="fill:#30363f;fill-opacity:0.4;"/><path d="M5649.469,1269.804c2.216,8.464 1.991,8.187 0.297,16.397c-0.099,-5.466 -0.198,-10.931 -0.297,-16.397Z" style="fill:#3e454e;fill-opacity:0.61;"/><path d="M439.259,4983.963c1.938,1.746 3.875,3.491 5.813,5.237l1.035,4.48c-1.821,-1.873 -3.641,-3.747 -5.462,-5.62l-1.386,-4.097Z" style="fill:#393f48;fill-opacity:0.43;"/><path d="M17.146,1269.776c-0.108,5.475 -0.216,10.95 -0.324,16.425c-0.698,-3.457 -1.395,-6.913 -2.093,-10.37l2.417,-6.055Z" style="fill:#3d434c;fill-opacity:0.62;"/><path d="M877.435,5281.454c3.311,0.802 6.621,1.603 9.932,2.405c-1.523,0.403 -2.637,1.841 -4.16,2.244c-6.934,1.835 -5.567,-4.484 -5.772,-4.649Z" style="fill:#535861;fill-opacity:0.39;"/><path d="M297.172,584.754c-2.342,6.073 -2.173,5.763 -6.033,10.584c1.54,-13.822 5.976,-10.518 6.033,-10.584Z" style="fill:#474d56;fill-opacity:0.45;"/><path d="M5649.639,4125.972c1.587,8.15 1.608,7.921 -0.496,16.233c0.165,-5.411 0.331,-10.822 0.496,-16.233Z" style="fill:#464c55;fill-opacity:0.56;"/><path d="M1276.148,16.013c5.32,-0.878 10.641,-1.757 15.961,-2.635c-7.835,2.935 -7.377,3.798 -15.961,2.635Z" style="fill:#4c525a;fill-opacity:0.52;"/><path d="M4452.075,5382.243c7.855,-3.131 7.389,-3.934 15.942,-2.712l-15.942,2.712Z" style="fill:#4c5159;fill-opacity:0.49;"/><path d="M8.933,4064.618c1.047,3.769 2.094,7.538 3.141,11.308l-2.659,5.127c-0.161,-5.478 -0.322,-10.956 -0.482,-16.434Z" style="fill:#3c424b;fill-opacity:0.51;"/><path d="M5304.464,4900.456c-1.687,8.967 -1.318,9.077 -1.822,9.684c-1.033,1.244 -3.798,-0.793 -4.831,0.452c2.564,-5.687 2.235,-5.574 6.653,-10.136Z" style="fill:#343a44;fill-opacity:0.44;"/><path d="M667.238,241.389c-5.017,4.056 -4.744,3.851 -10.61,6.139c0.159,-0.131 -2.867,-3.916 10.61,-6.139Z" style="fill:#252c37;fill-opacity:0.41;"/><path d="M9.465,1319.999l2.594,5.105c-1.033,3.774 -2.066,7.549 -3.099,11.323c0.168,-5.476 0.337,-10.952 0.505,-16.428Z" style="fill:#3a414a;fill-opacity:0.51;"/><path d="M5657.177,1320.007c0.179,5.474 0.357,10.947 0.536,16.421c-1.034,-3.777 -2.069,-7.554 -3.103,-11.331l2.568,-5.089Z" style="fill:#3a4049;fill-opacity:0.51;"/><path d="M5385.98,606.806c0.45,0.547 3.768,-2.351 6.291,10.55c-4.049,-4.881 -3.914,-4.588 -6.291,-10.55Z" style="fill:#202732;fill-opacity:0.41;"/><path d="M590.858,5114.164l4.316,1.498c2.007,1.596 4.013,3.192 6.02,4.788c-13.727,-1.768 -10.068,-6.044 -10.336,-6.286Z" style="fill:#434a53;fill-opacity:0.44;"/><path d="M1171.012,32.405l15.949,-2.28c-7.94,3.06 -7.602,3.526 -15.949,2.28Z" style="fill:#4c525a;fill-opacity:0.48;"/><path d="M30.073,4225.149c3.135,8.33 3.783,7.704 4.185,16.785c-1.395,-5.595 -2.79,-11.19 -4.185,-16.785Z" style="fill:#3d434b;fill-opacity:0.53;"/><path d="M5082.891,301.534c10.482,2.359 8.422,5.073 10.127,6.709c-3.376,-2.236 -6.752,-4.473 -10.127,-6.709Z" style="fill:#4a4f57;fill-opacity:0.47;"/><path d="M4945.637,211.091c8.069,-1.797 8.157,-2.387 8.715,-1.94c2.373,1.901 -1.876,3.073 0.528,4.999c-3.081,-1.02 -6.162,-2.039 -9.243,-3.059Z" style="fill:#494e58;fill-opacity:0.38;"/><path d="M433.679,4978.405c1.86,1.852 3.72,3.705 5.581,5.557l1.386,4.097c-2.322,-3.218 -4.644,-6.436 -6.966,-9.654Z" style="fill:#323941;fill-opacity:0.48;"/><path d="M4424.29,5386.761c8.278,-2.64 7.79,-2.926 15.915,-1.895c-5.305,0.632 -10.61,1.263 -15.915,1.895Z" style="fill:#4a5058;fill-opacity:0.5;"/><path d="M5419.731,656.206c1.947,3.619 3.894,7.237 5.84,10.856c-1.947,-3.619 -3.894,-7.237 -5.84,-10.856Z" style="fill:#323842;fill-opacity:0.45;"/><path d="M5359.971,4834.158c-3.031,10.425 -5.505,8.542 -6.811,9.942c2.554,-5.944 2.61,-5.376 6.811,-9.942Z" style="fill:#3a4049;fill-opacity:0.46;"/><path d="M5640.811,4202.877c-1.166,5.616 -2.332,11.232 -3.498,16.848c1.166,-5.616 2.332,-11.232 3.498,-16.848Z" style="fill:#3e444d;fill-opacity:0.51;"/><path d="M5137.072,5064.962c-3.251,2.358 -6.502,4.717 -9.753,7.075c3.251,-2.358 6.502,-4.717 9.753,-7.075Z" style="fill:#303640;fill-opacity:0.45;"/><path d="M4474.056,30.763l16.058,1.886c-8.366,0.945 -7.867,0.69 -16.058,-1.886Z" style="fill:#40454e;fill-opacity:0.49;"/><path d="M5369.614,584.654c2.169,3.416 4.339,6.831 6.508,10.247c-2.169,-3.416 -4.339,-6.831 -6.508,-10.247Z" style="fill:#363c45;fill-opacity:0.47;"/><path d="M4884.741,5234.326c3.131,-1.014 6.261,-2.028 9.392,-3.043c-1.209,0.893 2.037,5.744 -6,4.429c-1.959,-0.32 -1.372,-1.057 -3.392,-1.387Z" style="fill:#373e47;fill-opacity:0.36;"/><path d="M27.765,4203.461c0.635,5.401 1.27,10.801 1.905,16.202c-2.236,-8.002 -2.697,-7.531 -1.905,-16.202Z" style="fill:#3b414b;fill-opacity:0.51;"/><path d="M5004.445,5164.434c-3.249,2.46 -2.009,3.916 -6.074,4.599c-2.585,0.434 -1.978,0.966 -4.654,1.416c3.576,-2.005 7.152,-4.01 10.728,-6.014Z" style="fill:#363c46;fill-opacity:0.49;"/><path d="M4574.467,55.696c8.411,-0.64 7.971,0.172 15.706,3.012l-15.706,-3.012Z" style="fill:#343b45;fill-opacity:0.48;"/><path d="M54.788,1077.038l2.161,4.526c-1.549,3.762 -3.098,7.524 -4.647,11.286c1.746,-8.169 1.639,-7.79 2.487,-15.812Z" style="fill:#282f39;fill-opacity:0.45;"/><path d="M5609.94,4330.591c0.886,5.911 0.952,5.776 -1.999,10.532c0,0 1.999,-10.532 1.999,-10.532Z" style="fill:#474c55;fill-opacity:0.41;"/></g></svg>