<?xml version="1.0" encoding="UTF-8"?>
<svg version="1.1" xmlns="http://www.w3.org/2000/svg" width="1360" height="1298">
<path d="M0 0 C448.8 0 897.6 0 1360 0 C1360 428.34 1360 856.68 1360 1298 C911.2 1298 462.4 1298 0 1298 C0 869.66 0 441.32 0 0 Z " fill="#FF0000" transform="translate(0,0)"/>
<path d="M0 0 C4.82681046 -0.1328761 9.06065785 0.27240573 13.76171875 1.35546875 C15.67174683 1.79040649 15.67174683 1.79040649 17.62036133 2.23413086 C18.97618709 2.55143865 20.33189767 2.869239 21.6875 3.1875 C23.09326393 3.51279348 24.49910778 3.83774178 25.9050293 4.16235352 C29.9393421 5.09711519 33.96969283 6.04812366 38 7 C38.98387695 7.22880859 39.96775391 7.45761719 40.98144531 7.69335938 C55.53665971 11.08646481 69.7762434 15.42664548 84 20 C84.68396851 20.21954346 85.36793701 20.43908691 86.07263184 20.6652832 C148.23793786 40.65038754 207.97566008 66.89790464 260 107 C260.56460937 107.433125 261.12921875 107.86625 261.7109375 108.3125 C268.62480032 113.62621116 275.34773187 119.04465053 281.76953125 124.953125 C283.83296274 126.84671187 285.93574581 128.67826164 288.0625 130.5 C292.59624621 134.44637828 296.78620118 138.71811467 301 143 C303.50901347 145.52105673 306.02853281 148.02775464 308.578125 150.5078125 C313.95851958 155.77808205 318.96777496 161.13675506 323.65625 167.046875 C325.27664748 169.08857583 326.91062291 171.09054992 328.59375 173.078125 C344.11448409 191.61322778 357.08820645 212.47427424 368 234 C368.39977051 234.77649902 368.79954102 235.55299805 369.21142578 236.35302734 C391.31908532 279.59749563 401.26976028 327.83392081 401.1875 376.1875 C401.18656342 376.90943542 401.18562683 377.63137085 401.18466187 378.37518311 C401.15207815 390.03116582 400.68794058 401.45705239 399 413 C398.83338867 414.16241211 398.66677734 415.32482422 398.49511719 416.52246094 C393.40551389 451.41129598 383.97969691 483.95745499 369 516 C368.60876953 516.84288574 368.21753906 517.68577148 367.81445312 518.55419922 C353.38327397 549.34351613 333.73261641 577.4838369 310.5234375 602.2890625 C308.24929654 604.73217987 306.06126314 607.22867738 303.875 609.75 C293.95964213 620.78886065 282.71031985 630.90950912 271 640 C270.41379883 640.4640625 269.82759766 640.928125 269.22363281 641.40625 C251.23400732 655.6453882 232.19325605 668.11329585 212 679 C211.10039551 679.48678223 210.20079102 679.97356445 209.27392578 680.47509766 C191.78417473 689.83194491 173.55382925 697.07930786 155 704 C153.62739014 704.51433594 153.62739014 704.51433594 152.22705078 705.0390625 C109.90840582 720.66765752 61.69466193 727.30738036 16.6875 727.0625 C15.06054827 727.05747003 13.43359501 727.0529098 11.80664062 727.04882812 C7.87105525 727.03795245 3.93554507 727.02077226 0 727 C2.55683655 724.44316345 4.87100307 723.81930563 8.28125 722.6015625 C9.5983486 722.12434214 10.91523398 721.64653298 12.23193359 721.16821289 C12.9272821 720.91733917 13.62263062 720.66646545 14.33905029 720.4079895 C29.96718974 714.74535465 45.04748409 708.27593937 60 701 C61.62760254 700.21689453 61.62760254 700.21689453 63.28808594 699.41796875 C98.14167459 682.60972594 131.80850097 661.9602077 161.08203125 636.515625 C163.90017333 634.08606208 166.77912367 631.75771097 169.6875 629.4375 C174.32201173 625.67195922 178.50489083 621.59993896 182.671875 617.328125 C184.69161467 615.30838533 186.74972255 613.45704128 188.9375 611.625 C193.93514104 607.34130768 198.24050702 602.41686673 202.62402344 597.52441406 C203.91477501 596.09441888 205.22624474 594.6832018 206.5390625 593.2734375 C213.14114042 586.16834412 219.13450182 578.71232224 225 571 C225.81259277 569.94014893 225.81259277 569.94014893 226.64160156 568.85888672 C247.25556185 541.88179363 263.53038843 512.56112366 276 481 C276.35320312 480.10877441 276.70640625 479.21754883 277.0703125 478.29931641 C295.41643295 431.52212642 300.73312317 378.75759267 294 329 C293.88172852 328.10635742 293.76345703 327.21271484 293.64160156 326.29199219 C286.36794137 273.82169537 263.55109456 224.80992694 233 182 C232.34306152 181.07888428 232.34306152 181.07888428 231.67285156 180.13916016 C223.2292197 168.40088401 213.99453125 157.03860071 204.1953125 146.40625 C202.97553399 145.06926858 201.76416348 143.7239395 200.58862305 142.34790039 C195.68448304 136.61747554 190.42542432 131.27267476 185.0847168 125.9543457 C183.56508332 124.4400742 182.05087483 122.9205257 180.53710938 121.40039062 C175.19649845 116.05579738 169.75424642 110.90072713 164 106 C162.84304397 104.97883314 161.68806383 103.9554229 160.53515625 102.9296875 C151.99728923 95.39570071 143.1674414 88.36841777 134.05273438 81.546875 C132.16138559 80.12161502 130.28885414 78.67570139 128.421875 77.21875 C99.11963074 54.51784775 66.75458057 35.21896137 34 18 C31.92707585 16.90235787 29.85415926 15.80470148 27.78125 14.70703125 C25.75053903 13.63699724 23.71930661 12.56795211 21.6875 11.5 C20.77508545 11.01942139 19.8626709 10.53884277 18.92260742 10.04370117 C12.71074027 6.80468465 6.40387115 3.83966296 0 1 C0 0.67 0 0.34 0 0 Z " fill="#FFFDFD" transform="translate(704,228)"/>
<path d="M0 0 C-3.49409727 2.88046448 -7.37065463 4.78026574 -11.421875 6.73828125 C-12.92624527 7.47611435 -14.43038653 8.21441454 -15.93432617 8.953125 C-16.72052338 9.33791016 -17.50672058 9.72269531 -18.31674194 10.11914062 C-32.89552843 17.2691145 -47.10504423 24.76179528 -60.99121094 33.19433594 C-63.27657159 34.56584903 -65.5695697 35.91570307 -67.87597656 37.25097656 C-77.94302246 43.08800745 -87.71659105 49.26108732 -97.375 55.75 C-98.44534988 56.46650223 -98.44534988 56.46650223 -99.537323 57.19747925 C-116.67848661 68.67980537 -133.14887977 80.78790914 -149 94 C-149.57975586 94.48065918 -150.15951172 94.96131836 -150.75683594 95.45654297 C-158.18314394 101.62101698 -165.38277687 107.99370262 -172.45117188 114.56445312 C-174.0814142 116.07545956 -175.71950381 117.57757696 -177.359375 119.078125 C-185.31995639 126.37018211 -193.12638569 133.68869079 -200.16796875 141.890625 C-202.15311587 144.17629546 -204.2003983 146.39701378 -206.25 148.625 C-211.34943853 154.27853712 -216.00829093 160.2371607 -220.65332031 166.26367188 C-221.8983024 167.86887721 -223.16315465 169.45861837 -224.4296875 171.046875 C-240.43288859 191.30010655 -253.96515909 213.65699102 -265.03027344 236.96582031 C-265.68872176 238.34703668 -266.3563825 239.72389142 -267.03222656 241.09667969 C-279.23019995 265.92707482 -287.27625727 292.79722811 -292 320 C-292.31106689 321.72307373 -292.31106689 321.72307373 -292.62841797 323.48095703 C-300.44553328 368.06632223 -297.2439774 416.01634607 -283 459 C-282.68015137 459.97582031 -282.36030273 460.95164062 -282.03076172 461.95703125 C-277.40182089 475.98592383 -272.40812636 489.68316255 -266 503 C-265.68208496 503.66612305 -265.36416992 504.33224609 -265.03662109 505.01855469 C-262.77740137 509.72497589 -260.41804542 514.37339881 -258 519 C-257.47164551 520.01900391 -257.47164551 520.01900391 -256.93261719 521.05859375 C-247.14519652 539.77932357 -235.31526142 557.60120435 -222 574 C-221.24460937 574.94617188 -220.48921875 575.89234375 -219.7109375 576.8671875 C-215.41139879 582.20097951 -210.95828717 587.36172035 -206.3359375 592.41796875 C-205.04301431 593.84710291 -203.75690314 595.28284108 -202.50073242 596.74438477 C-197.75615855 602.26195487 -192.71912942 607.43044546 -187.5625 612.5625 C-186.75490234 613.37396484 -185.94730469 614.18542969 -185.11523438 615.02148438 C-180.23971486 619.88914649 -175.24260335 624.53167145 -170 629 C-168.99063647 629.87731784 -167.98150353 630.75490107 -166.97265625 631.6328125 C-120.21552528 671.67448976 -65.20799746 702.47457674 -7.31054688 723.15307617 C-4.85301842 724.05387564 -2.42579556 725.01727348 0 726 C0 726.33 0 726.66 0 727 C-39.47769395 727.49937727 -78.88867567 724.99838192 -117.17333984 714.74414062 C-119.95727649 714.0112473 -122.74932311 713.33429849 -125.55078125 712.671875 C-151.45891294 706.43835667 -176.15257881 696.81927221 -200 685 C-201.39484619 684.31188232 -201.39484619 684.31188232 -202.81787109 683.60986328 C-221.49324321 674.31735148 -239.30231056 663.50793872 -256 651 C-256.81041748 650.39575195 -256.81041748 650.39575195 -257.63720703 649.77929688 C-279.74953439 633.24255191 -302.0021397 614.35823285 -319.01953125 592.53515625 C-321.15789936 589.79787637 -323.41716569 587.19111573 -325.6875 584.5625 C-370.61159053 530.58394161 -399.8555527 457.04916138 -400.203125 386.5234375 C-400.21013931 385.56314636 -400.21715363 384.60285522 -400.22438049 383.61346436 C-400.24177365 380.53392787 -400.24823229 377.4545838 -400.25 374.375 C-400.25067474 373.32165466 -400.25134949 372.26830933 -400.25204468 371.18304443 C-400.23614586 355.56861753 -399.77799776 340.40230366 -397 325 C-396.82839355 323.99533691 -396.65678711 322.99067383 -396.47998047 321.95556641 C-385.98722911 261.37141401 -357.78948148 204.92680828 -316.3359375 159.58203125 C-314.44295939 157.48962568 -312.59562512 155.37135732 -310.75390625 153.234375 C-306.86851111 148.78522277 -302.74930062 144.60168964 -298.5625 140.4375 C-297.85029297 139.72142578 -297.13808594 139.00535156 -296.40429688 138.26757812 C-291.76695197 133.6386571 -286.97544491 129.26135496 -282 125 C-280.55367187 123.7315625 -280.55367187 123.7315625 -279.078125 122.4375 C-214.83384425 67.06673869 -132.39693499 29.84809441 -50.15673828 10.51318359 C-46.80255509 9.7150748 -43.46567709 8.85286711 -40.125 8 C-7.32173697 -0.20919248 -7.32173697 -0.20919248 0 0 Z " fill="#FFFDFD" transform="translate(634,228)"/>
<path d="M0 0 C0.33 0 0.66 0 1 0 C1 111.21 1 222.42 1 337 C-447.8 337 -896.6 337 -1359 337 C-1359 226.45 -1359 115.9 -1359 2 C-1358.67 2 -1358.34 2 -1358 2 C-1357.93530518 2.85827393 -1357.87061035 3.71654785 -1357.80395508 4.60083008 C-1356.30038967 23.9948879 -1354.11833641 42.95308979 -1350 62 C-1349.72615479 63.30155029 -1349.72615479 63.30155029 -1349.44677734 64.62939453 C-1343.07457134 94.37223974 -1331.18524648 123.16702197 -1317 150 C-1316.6400293 150.68803711 -1316.28005859 151.37607422 -1315.90917969 152.08496094 C-1294.64947787 192.46559835 -1263.96882678 229.82828664 -1228 258 C-1227.37754395 258.48968262 -1226.75508789 258.97936523 -1226.11376953 259.48388672 C-1216.37097752 267.12615787 -1206.4607938 274.37087459 -1196 281 C-1195.14003418 281.54769043 -1195.14003418 281.54769043 -1194.26269531 282.10644531 C-1163.02993894 301.83705345 -1128.68755885 316.77049851 -1092.75585938 325.33691406 C-1090.09547523 325.97702775 -1087.44653017 326.65296431 -1084.796875 327.3359375 C-1059.32712333 333.71885299 -1033.49993799 335.62234104 -1007.32465981 335.50766886 C-1003.67996368 335.4963408 -1000.03532166 335.50886556 -996.39062977 335.51797634 C-990.04029104 335.53072606 -983.69009274 335.52904271 -977.3397541 335.51719666 C-967.89617463 335.49962961 -958.45270312 335.50538073 -949.00911764 335.51536357 C-932.13388798 335.53245825 -915.25872377 335.52707754 -898.38349555 335.51200638 C-883.61988534 335.49890736 -868.85629774 335.49376772 -854.09268188 335.49632454 C-853.10989929 335.49648495 -852.1271167 335.49664537 -851.11455282 335.49681065 C-847.12429124 335.49747432 -843.13402967 335.49817676 -839.14376811 335.49893599 C-801.79083111 335.50594409 -764.43793388 335.49052075 -727.085007 335.46431253 C-693.94972527 335.44118674 -660.8144872 335.43581635 -627.67919922 335.44604492 C-619.18751019 335.44864726 -610.69582116 335.45123236 -602.20413208 335.45364285 C-601.15847143 335.45394029 -600.11281078 335.45423774 -599.03546344 335.4545442 C-571.28269731 335.46216868 -543.52993472 335.45573865 -515.77717018 335.44494683 C-512.78913656 335.44379911 -509.80110293 335.44265593 -506.8130693 335.44152 C-504.83119895 335.44076476 -502.84932861 335.43999912 -500.86745827 335.43922299 C-486.11301041 335.43358012 -471.35857387 335.43488402 -456.60412598 335.43945122 C-439.82291629 335.44457223 -423.0417488 335.43864718 -406.2605496 335.41855692 C-396.88502921 335.40761945 -387.50959184 335.4047318 -378.13406902 335.41384545 C-371.85510121 335.41910238 -365.57620383 335.41327085 -359.29725076 335.39879211 C-355.73119971 335.39086289 -352.1653152 335.38733567 -348.59926558 335.39736467 C-331.82575335 335.43322228 -315.58419671 334.56603059 -299 332 C-298.25920901 331.88801912 -297.51841801 331.77603825 -296.75517881 331.66066401 C-292.80404813 331.06145538 -288.86908083 330.40393082 -284.9375 329.6875 C-283.77178467 329.47512695 -282.60606934 329.26275391 -281.4050293 329.04394531 C-230.68448197 319.52369547 -180.50427951 297.30960415 -139.83789062 265.43652344 C-138.02292847 264.01792124 -136.19340749 262.62038762 -134.359375 261.2265625 C-127.19139977 255.74015763 -120.47504596 249.91156514 -113.90625 243.72265625 C-111.51983232 241.48699345 -109.10406464 239.3185421 -106.625 237.1875 C-101.02736455 232.32917489 -95.94693685 227.07822488 -91.12109375 221.45703125 C-89.48471453 219.56148331 -87.83097174 217.689022 -86.16015625 215.82421875 C-46.66420401 171.45169425 -19.18281482 114.97916804 -7 57 C-6.80712402 56.1248877 -6.61424805 55.24977539 -6.41552734 54.34814453 C-2.5049786 36.4523552 -1.34893136 18.22922219 0 0 Z " fill="#FFFDFD" transform="translate(1359,961)"/>
<path d="M0 0 C448.8 0 897.6 0 1360 0 C1360 109.56 1360 219.12 1360 332 C1359.67 332 1359.34 332 1359 332 C1358.89977539 330.98389648 1358.79955078 329.96779297 1358.69628906 328.92089844 C1356.12169547 301.76108596 1356.12169547 301.76108596 1351 275 C1350.68724121 273.68563965 1350.68724121 273.68563965 1350.36816406 272.34472656 C1332.36431067 197.27205485 1290.14005371 126.88646787 1229 79 C1228.37754395 78.51031738 1227.75508789 78.02063477 1227.11376953 77.51611328 C1181.45189862 41.69882412 1128.55267899 17.42246922 1071.5 6.75 C1070.20876221 6.5037085 1068.91752441 6.25741699 1067.5871582 6.00366211 C1046.70042381 2.24817512 1025.78946922 1.69801548 1004.61442326 1.73066217 C1000.99911041 1.73398387 997.38381912 1.72560143 993.76851362 1.71884382 C987.45559171 1.70862093 981.14270041 1.70568644 974.82977104 1.70775604 C965.44122005 1.7108263 956.05270253 1.70243766 946.66415808 1.69200679 C928.91370463 1.6727347 911.16326278 1.66704113 893.41280008 1.66589268 C879.69746916 1.66497112 865.98214274 1.66084164 852.26681328 1.65449142 C848.30889224 1.65269615 844.35097119 1.65091652 840.39305013 1.64914167 C839.40890584 1.64869957 838.42476154 1.64825748 837.41079469 1.64780198 C809.7547319 1.63550555 782.09867067 1.62759964 754.44260502 1.62848854 C752.88077117 1.62853528 752.88077117 1.62853528 751.28738512 1.62858296 C746.01087549 1.62874915 740.73436587 1.62894723 735.45785625 1.62915237 C734.41005415 1.62919226 733.36225206 1.62923215 732.28269839 1.62927325 C730.16379017 1.62935413 728.04488194 1.62943772 725.92597372 1.62952404 C692.97333657 1.63074902 660.0207406 1.61574112 627.06811523 1.58837891 C589.98533211 1.55759939 552.90257604 1.54044991 515.81977934 1.54230535 C511.85902909 1.54245459 507.89827885 1.54255202 503.93752861 1.54261398 C502.47483864 1.54264895 502.47483864 1.54264895 500.98259938 1.54268462 C485.35130424 1.54274593 469.72004514 1.53002341 454.08876069 1.51274945 C438.35544396 1.49572336 422.62217945 1.49387342 406.88885856 1.5069681 C397.56613543 1.51431074 388.24357183 1.51084109 378.9208659 1.49108342 C372.66657135 1.47895913 366.41239059 1.48181025 360.15810096 1.49602441 C356.61249805 1.50368419 353.06720043 1.50564761 349.52162076 1.48910971 C323.88417555 1.39310926 298.34999342 3.56986931 273.375 9.625 C272.66694214 9.79163147 271.95888428 9.95826294 271.22937012 10.12994385 C247.64646304 15.69778723 224.92551179 23.66425065 203 34 C202.09378906 34.42361816 201.18757812 34.84723633 200.25390625 35.28369141 C168.75063719 50.13603049 140.05187906 69.81642104 114.609375 93.57421875 C112.36126977 95.66414891 110.07849089 97.68842739 107.75 99.6875 C101.73209428 104.92046149 96.20672421 110.59085459 91.01953125 116.64453125 C89.49146494 118.42678267 87.94365844 120.19213435 86.38671875 121.94921875 C50.46421515 162.71329243 24.71640838 212.50333688 11.71142578 265.16699219 C11.05536761 267.7795176 10.36119491 270.37796318 9.65234375 272.9765625 C4.54661946 292.23425287 2.90635114 312.21716663 1 332 C0.67 332 0.34 332 0 332 C0 222.44 0 112.88 0 0 Z " fill="#FFFDFD" transform="translate(0,0)"/>
<path d="M0 0 C0.77617676 -0.00100708 1.55235352 -0.00201416 2.35205078 -0.00305176 C14.87333408 0.0079092 26.87980025 0.83058266 39.1875 3.25 C40.71206197 3.52053406 42.23680225 3.79006523 43.76171875 4.05859375 C56.42699385 6.40306853 68.63888609 10.23946821 80.8828125 14.18652344 C83.94865486 15.1731376 87.0204267 16.13857413 90.09375 17.1015625 C117.77420513 25.92600495 144.79201156 36.86348442 171.85546875 47.39453125 C205.75782483 60.57604925 239.73226995 72.98752999 275.36767578 80.63696289 C277.39024666 81.07667505 279.40910141 81.53361565 281.42529297 82.00170898 C290.06507251 83.96253157 298.61723417 85.14509458 307.4375 85.9375 C308.1252652 86.00003967 308.8130304 86.06257935 309.52163696 86.12701416 C357.67030822 90.43511512 401.677149 81.07870613 442.26757812 54.49365234 C444.54075156 53.02117708 446.85084566 51.61927944 449.1875 50.25 C448.61097455 53.69833697 447.52523358 55.24900046 444.9765625 57.60546875 C444.31462891 58.22309082 443.65269531 58.84071289 442.97070312 59.47705078 C442.25849609 60.12399902 441.54628906 60.77094727 440.8125 61.4375 C439.71711914 62.44659424 439.71711914 62.44659424 438.59960938 63.47607422 C433.86877954 67.80363728 429.05708122 71.99675842 424.03125 75.98046875 C421.95225007 77.63967061 419.92350838 79.31995962 417.90625 81.05078125 C367.50904932 123.85640145 306.85392659 146.95652328 240.65625 141.8125 C190.51923657 136.79581253 142.50919574 111.92398282 98.5 88.6875 C54.13236813 65.28978966 8.72387738 41.42667361 -40.8125 31.25 C-41.59923096 31.0754126 -42.38596191 30.9008252 -43.1965332 30.72094727 C-49.64857571 29.33191697 -56.04917158 28.67951058 -62.625 28.1875 C-64.63171276 28.03254643 -66.63823362 27.8750827 -68.64453125 27.71484375 C-69.51827393 27.649021 -70.3920166 27.58319824 -71.29223633 27.51538086 C-73.84524818 27.24655165 -76.30464298 26.7925206 -78.8125 26.25 C-78.8125 25.26 -78.8125 24.27 -78.8125 23.25 C-76.64802832 21.66579094 -74.56714916 20.32696298 -72.25 19 C-71.5681665 18.60449951 -70.88633301 18.20899902 -70.18383789 17.80151367 C-68.07174689 16.59512541 -65.94681052 15.41657656 -63.8125 14.25 C-63.20921875 13.91887207 -62.6059375 13.58774414 -61.984375 13.24658203 C-42.45995924 2.77529486 -21.81682576 0.0196861 0 0 Z " fill="#FFFDFD" transform="translate(676.8125,963.75)"/>
</svg>
